<mxfile host="app.diagrams.net" agent="Mozilla/5.0 (Windows NT 10.0; Win64; x64) AppleWebKit/537.36 (KHTML, like Gecko) Chrome/128.0.0.0 Safari/537.36 OPR/114.0.0.0" version="25.0.3">
  <diagram name="Страница — 1" id="EaYpW_2jDXuWhTFtiiE-">
    <mxGraphModel dx="723" dy="395" grid="0" gridSize="10" guides="1" tooltips="1" connect="1" arrows="1" fold="1" page="1" pageScale="1" pageWidth="1169" pageHeight="827" math="0" shadow="0">
      <root>
        <mxCell id="0" />
        <mxCell id="1" parent="0" />
        <mxCell id="DeGM6VzPt1C5OLX9xuGM-68" value="" style="rounded=0;whiteSpace=wrap;html=1;" vertex="1" parent="1">
          <mxGeometry x="405" y="250" width="40" height="240" as="geometry" />
        </mxCell>
        <mxCell id="DeGM6VzPt1C5OLX9xuGM-69" value="Пункты производители" style="text;html=1;align=center;verticalAlign=middle;resizable=0;points=[];autosize=1;strokeColor=none;fillColor=none;rotation=270;" vertex="1" parent="1">
          <mxGeometry x="350" y="355" width="150" height="30" as="geometry" />
        </mxCell>
        <mxCell id="DeGM6VzPt1C5OLX9xuGM-70" value="" style="rounded=0;whiteSpace=wrap;html=1;" vertex="1" parent="1">
          <mxGeometry x="445" y="330" width="280" height="40" as="geometry" />
        </mxCell>
        <mxCell id="DeGM6VzPt1C5OLX9xuGM-71" value="" style="rounded=0;whiteSpace=wrap;html=1;" vertex="1" parent="1">
          <mxGeometry x="485" y="210" width="240" height="40" as="geometry" />
        </mxCell>
        <mxCell id="DeGM6VzPt1C5OLX9xuGM-73" value="" style="rounded=0;whiteSpace=wrap;html=1;" vertex="1" parent="1">
          <mxGeometry x="445" y="370" width="280" height="40" as="geometry" />
        </mxCell>
        <mxCell id="DeGM6VzPt1C5OLX9xuGM-74" value="" style="rounded=0;whiteSpace=wrap;html=1;" vertex="1" parent="1">
          <mxGeometry x="445" y="410" width="280" height="40" as="geometry" />
        </mxCell>
        <mxCell id="DeGM6VzPt1C5OLX9xuGM-75" value="" style="rounded=0;whiteSpace=wrap;html=1;" vertex="1" parent="1">
          <mxGeometry x="445" y="450" width="280" height="40" as="geometry" />
        </mxCell>
        <mxCell id="DeGM6VzPt1C5OLX9xuGM-83" value="" style="rounded=0;whiteSpace=wrap;html=1;" vertex="1" parent="1">
          <mxGeometry x="445" y="290" width="280" height="40" as="geometry" />
        </mxCell>
        <mxCell id="DeGM6VzPt1C5OLX9xuGM-84" value="" style="rounded=0;whiteSpace=wrap;html=1;" vertex="1" parent="1">
          <mxGeometry x="445" y="250" width="280" height="40" as="geometry" />
        </mxCell>
        <mxCell id="DeGM6VzPt1C5OLX9xuGM-85" value="" style="endArrow=none;html=1;rounded=0;entryX=0.141;entryY=0.001;entryDx=0;entryDy=0;entryPerimeter=0;exitX=0.141;exitY=1.024;exitDx=0;exitDy=0;exitPerimeter=0;" edge="1" parent="1" source="DeGM6VzPt1C5OLX9xuGM-75" target="DeGM6VzPt1C5OLX9xuGM-84">
          <mxGeometry width="50" height="50" relative="1" as="geometry">
            <mxPoint x="685" y="290" as="sourcePoint" />
            <mxPoint x="735" y="240" as="targetPoint" />
          </mxGeometry>
        </mxCell>
        <mxCell id="DeGM6VzPt1C5OLX9xuGM-86" value="" style="endArrow=none;html=1;rounded=0;entryX=0.166;entryY=0.03;entryDx=0;entryDy=0;entryPerimeter=0;exitX=0.09;exitY=1.033;exitDx=0;exitDy=0;exitPerimeter=0;" edge="1" parent="1" target="DeGM6VzPt1C5OLX9xuGM-71">
          <mxGeometry width="50" height="50" relative="1" as="geometry">
            <mxPoint x="525" y="490" as="sourcePoint" />
            <mxPoint x="525" y="249" as="targetPoint" />
          </mxGeometry>
        </mxCell>
        <mxCell id="DeGM6VzPt1C5OLX9xuGM-87" value="" style="endArrow=none;html=1;rounded=0;entryX=0.331;entryY=0.007;entryDx=0;entryDy=0;entryPerimeter=0;exitX=0.09;exitY=1.033;exitDx=0;exitDy=0;exitPerimeter=0;" edge="1" parent="1" target="DeGM6VzPt1C5OLX9xuGM-71">
          <mxGeometry width="50" height="50" relative="1" as="geometry">
            <mxPoint x="565" y="490" as="sourcePoint" />
            <mxPoint x="565" y="249" as="targetPoint" />
          </mxGeometry>
        </mxCell>
        <mxCell id="DeGM6VzPt1C5OLX9xuGM-88" value="" style="endArrow=none;html=1;rounded=0;entryX=0.199;entryY=-0.01;entryDx=0;entryDy=0;entryPerimeter=0;exitX=0.09;exitY=1.033;exitDx=0;exitDy=0;exitPerimeter=0;" edge="1" parent="1">
          <mxGeometry width="50" height="50" relative="1" as="geometry">
            <mxPoint x="605" y="490" as="sourcePoint" />
            <mxPoint x="605" y="210" as="targetPoint" />
          </mxGeometry>
        </mxCell>
        <mxCell id="DeGM6VzPt1C5OLX9xuGM-89" value="" style="endArrow=none;html=1;rounded=0;entryX=0.199;entryY=-0.01;entryDx=0;entryDy=0;entryPerimeter=0;exitX=0.09;exitY=1.033;exitDx=0;exitDy=0;exitPerimeter=0;" edge="1" parent="1">
          <mxGeometry width="50" height="50" relative="1" as="geometry">
            <mxPoint x="645" y="490" as="sourcePoint" />
            <mxPoint x="645" y="210" as="targetPoint" />
          </mxGeometry>
        </mxCell>
        <mxCell id="DeGM6VzPt1C5OLX9xuGM-90" value="" style="endArrow=none;html=1;rounded=0;entryX=0.199;entryY=-0.01;entryDx=0;entryDy=0;entryPerimeter=0;exitX=0.09;exitY=1.033;exitDx=0;exitDy=0;exitPerimeter=0;" edge="1" parent="1">
          <mxGeometry width="50" height="50" relative="1" as="geometry">
            <mxPoint x="684.5799999999999" y="490" as="sourcePoint" />
            <mxPoint x="684.5799999999999" y="210" as="targetPoint" />
          </mxGeometry>
        </mxCell>
        <mxCell id="DeGM6VzPt1C5OLX9xuGM-91" value="" style="endArrow=none;html=1;rounded=0;entryX=0.199;entryY=-0.01;entryDx=0;entryDy=0;entryPerimeter=0;exitX=0.09;exitY=1.033;exitDx=0;exitDy=0;exitPerimeter=0;" edge="1" parent="1">
          <mxGeometry width="50" height="50" relative="1" as="geometry">
            <mxPoint x="725" y="490" as="sourcePoint" />
            <mxPoint x="725" y="210" as="targetPoint" />
          </mxGeometry>
        </mxCell>
        <mxCell id="DeGM6VzPt1C5OLX9xuGM-92" value="Пункты потребители" style="rounded=0;whiteSpace=wrap;html=1;" vertex="1" parent="1">
          <mxGeometry x="485" y="170" width="240" height="40" as="geometry" />
        </mxCell>
        <mxCell id="DeGM6VzPt1C5OLX9xuGM-93" value="A&lt;sub&gt;1&lt;/sub&gt;" style="text;html=1;align=center;verticalAlign=middle;resizable=0;points=[];autosize=1;strokeColor=none;fillColor=none;rotation=270;" vertex="1" parent="1">
          <mxGeometry x="449" y="255" width="32" height="30" as="geometry" />
        </mxCell>
        <mxCell id="DeGM6VzPt1C5OLX9xuGM-94" value="A&lt;sub&gt;i&lt;/sub&gt;" style="text;html=1;align=center;verticalAlign=middle;resizable=0;points=[];autosize=1;strokeColor=none;fillColor=none;rotation=270;" vertex="1" parent="1">
          <mxGeometry x="451" y="335" width="28" height="30" as="geometry" />
        </mxCell>
        <mxCell id="DeGM6VzPt1C5OLX9xuGM-95" value="A&lt;sub&gt;m&lt;/sub&gt;" style="text;html=1;align=center;verticalAlign=middle;resizable=0;points=[];autosize=1;strokeColor=none;fillColor=none;rotation=270;" vertex="1" parent="1">
          <mxGeometry x="449" y="415" width="34" height="30" as="geometry" />
        </mxCell>
        <mxCell id="DeGM6VzPt1C5OLX9xuGM-96" value="&lt;sub&gt;&lt;span style=&quot;font-size: 12px;&quot;&gt;B&lt;/span&gt;1&lt;/sub&gt;" style="text;html=1;align=center;verticalAlign=middle;resizable=0;points=[];autosize=1;strokeColor=none;fillColor=none;" vertex="1" parent="1">
          <mxGeometry x="489" y="215" width="32" height="30" as="geometry" />
        </mxCell>
        <mxCell id="DeGM6VzPt1C5OLX9xuGM-97" value="&lt;sub style=&quot;&quot;&gt;&lt;span style=&quot;font-size: 12px;&quot;&gt;B&lt;/span&gt;j&lt;/sub&gt;" style="text;html=1;align=center;verticalAlign=middle;resizable=0;points=[];autosize=1;strokeColor=none;fillColor=none;" vertex="1" parent="1">
          <mxGeometry x="571" y="215" width="28" height="30" as="geometry" />
        </mxCell>
        <mxCell id="DeGM6VzPt1C5OLX9xuGM-98" value="B&lt;span style=&quot;font-size: 10px;&quot;&gt;&lt;sub&gt;n&lt;/sub&gt;&lt;/span&gt;" style="text;html=1;align=center;verticalAlign=middle;resizable=0;points=[];autosize=1;strokeColor=none;fillColor=none;" vertex="1" parent="1">
          <mxGeometry x="650" y="216" width="31" height="29" as="geometry" />
        </mxCell>
        <mxCell id="DeGM6VzPt1C5OLX9xuGM-99" value="&lt;font style=&quot;font-size: 9px;&quot;&gt;Потреб-&lt;/font&gt;&lt;div&gt;&lt;font style=&quot;font-size: 9px;&quot;&gt;ности&lt;/font&gt;&lt;/div&gt;" style="text;html=1;align=center;verticalAlign=middle;resizable=0;points=[];autosize=1;strokeColor=none;fillColor=none;" vertex="1" parent="1">
          <mxGeometry x="435" y="450" width="60" height="40" as="geometry" />
        </mxCell>
        <mxCell id="DeGM6VzPt1C5OLX9xuGM-100" value="&lt;font style=&quot;font-size: 9px;&quot;&gt;Запасы&lt;/font&gt;" style="text;html=1;align=center;verticalAlign=middle;resizable=0;points=[];autosize=1;strokeColor=none;fillColor=none;" vertex="1" parent="1">
          <mxGeometry x="680" y="215" width="50" height="30" as="geometry" />
        </mxCell>
        <mxCell id="DeGM6VzPt1C5OLX9xuGM-101" value="С&lt;sub&gt;11&lt;/sub&gt;" style="text;html=1;align=center;verticalAlign=middle;resizable=0;points=[];autosize=1;strokeColor=none;fillColor=none;" vertex="1" parent="1">
          <mxGeometry x="495" y="245" width="40" height="30" as="geometry" />
        </mxCell>
        <mxCell id="DeGM6VzPt1C5OLX9xuGM-102" value="С&lt;sub&gt;1j&lt;/sub&gt;" style="text;html=1;align=center;verticalAlign=middle;resizable=0;points=[];autosize=1;strokeColor=none;fillColor=none;" vertex="1" parent="1">
          <mxGeometry x="575" y="245" width="40" height="30" as="geometry" />
        </mxCell>
        <mxCell id="DeGM6VzPt1C5OLX9xuGM-103" value="С&lt;sub&gt;1n&lt;/sub&gt;" style="text;html=1;align=center;verticalAlign=middle;resizable=0;points=[];autosize=1;strokeColor=none;fillColor=none;" vertex="1" parent="1">
          <mxGeometry x="655" y="245" width="38" height="30" as="geometry" />
        </mxCell>
        <mxCell id="DeGM6VzPt1C5OLX9xuGM-104" value="С&lt;sub&gt;i1&lt;/sub&gt;" style="text;html=1;align=center;verticalAlign=middle;resizable=0;points=[];autosize=1;strokeColor=none;fillColor=none;" vertex="1" parent="1">
          <mxGeometry x="498" y="325" width="34" height="30" as="geometry" />
        </mxCell>
        <mxCell id="DeGM6VzPt1C5OLX9xuGM-105" value="С&lt;sub&gt;n1&lt;/sub&gt;" style="text;html=1;align=center;verticalAlign=middle;resizable=0;points=[];autosize=1;strokeColor=none;fillColor=none;" vertex="1" parent="1">
          <mxGeometry x="496" y="403" width="38" height="30" as="geometry" />
        </mxCell>
        <mxCell id="DeGM6VzPt1C5OLX9xuGM-106" value="С&lt;sub&gt;mj&lt;/sub&gt;" style="text;html=1;align=center;verticalAlign=middle;resizable=0;points=[];autosize=1;strokeColor=none;fillColor=none;" vertex="1" parent="1">
          <mxGeometry x="575" y="403" width="37" height="30" as="geometry" />
        </mxCell>
        <mxCell id="DeGM6VzPt1C5OLX9xuGM-107" value="С&lt;sub&gt;mn&lt;/sub&gt;" style="text;html=1;align=center;verticalAlign=middle;resizable=0;points=[];autosize=1;strokeColor=none;fillColor=none;" vertex="1" parent="1">
          <mxGeometry x="652" y="403" width="41" height="30" as="geometry" />
        </mxCell>
        <mxCell id="DeGM6VzPt1C5OLX9xuGM-108" value="С&lt;sub&gt;ij&lt;/sub&gt;" style="text;html=1;align=center;verticalAlign=middle;resizable=0;points=[];autosize=1;strokeColor=none;fillColor=none;" vertex="1" parent="1">
          <mxGeometry x="580" y="325" width="31" height="30" as="geometry" />
        </mxCell>
        <mxCell id="DeGM6VzPt1C5OLX9xuGM-109" value="С&lt;sub&gt;in&lt;/sub&gt;" style="text;html=1;align=center;verticalAlign=middle;resizable=0;points=[];autosize=1;strokeColor=none;fillColor=none;" vertex="1" parent="1">
          <mxGeometry x="657" y="322" width="34" height="30" as="geometry" />
        </mxCell>
        <mxCell id="DeGM6VzPt1C5OLX9xuGM-110" value="a&lt;sub&gt;1&lt;/sub&gt;" style="text;html=1;align=center;verticalAlign=middle;resizable=0;points=[];autosize=1;strokeColor=none;fillColor=none;" vertex="1" parent="1">
          <mxGeometry x="690" y="253" width="30" height="30" as="geometry" />
        </mxCell>
        <mxCell id="DeGM6VzPt1C5OLX9xuGM-111" value="a&lt;sub&gt;i&lt;/sub&gt;" style="text;html=1;align=center;verticalAlign=middle;resizable=0;points=[];autosize=1;strokeColor=none;fillColor=none;" vertex="1" parent="1">
          <mxGeometry x="692" y="333" width="27" height="30" as="geometry" />
        </mxCell>
        <mxCell id="DeGM6VzPt1C5OLX9xuGM-112" value="a&lt;sub&gt;m&lt;/sub&gt;" style="text;html=1;align=center;verticalAlign=middle;resizable=0;points=[];autosize=1;strokeColor=none;fillColor=none;" vertex="1" parent="1">
          <mxGeometry x="689" y="410" width="33" height="30" as="geometry" />
        </mxCell>
        <mxCell id="DeGM6VzPt1C5OLX9xuGM-113" value="b&lt;sub&gt;1&lt;/sub&gt;" style="text;html=1;align=center;verticalAlign=middle;resizable=0;points=[];autosize=1;strokeColor=none;fillColor=none;" vertex="1" parent="1">
          <mxGeometry x="490.5" y="455" width="30" height="30" as="geometry" />
        </mxCell>
        <mxCell id="DeGM6VzPt1C5OLX9xuGM-114" value="b&lt;sub&gt;j&lt;/sub&gt;" style="text;html=1;align=center;verticalAlign=middle;resizable=0;points=[];autosize=1;strokeColor=none;fillColor=none;" vertex="1" parent="1">
          <mxGeometry x="572" y="455" width="27" height="30" as="geometry" />
        </mxCell>
        <mxCell id="DeGM6VzPt1C5OLX9xuGM-115" value="b&lt;sub&gt;n&lt;/sub&gt;" style="text;html=1;align=center;verticalAlign=middle;resizable=0;points=[];autosize=1;strokeColor=none;fillColor=none;" vertex="1" parent="1">
          <mxGeometry x="652" y="455" width="30" height="30" as="geometry" />
        </mxCell>
        <mxCell id="DeGM6VzPt1C5OLX9xuGM-116" value="..." style="text;html=1;align=center;verticalAlign=middle;resizable=0;points=[];autosize=1;strokeColor=none;fillColor=none;" vertex="1" parent="1">
          <mxGeometry x="611" y="213" width="28" height="26" as="geometry" />
        </mxCell>
        <mxCell id="DeGM6VzPt1C5OLX9xuGM-117" value="..." style="text;html=1;align=center;verticalAlign=middle;resizable=0;points=[];autosize=1;strokeColor=none;fillColor=none;" vertex="1" parent="1">
          <mxGeometry x="532" y="215" width="28" height="26" as="geometry" />
        </mxCell>
        <mxCell id="DeGM6VzPt1C5OLX9xuGM-120" value="..." style="text;html=1;align=center;verticalAlign=middle;resizable=0;points=[];autosize=1;strokeColor=none;fillColor=none;" vertex="1" parent="1">
          <mxGeometry x="451" y="296" width="28" height="26" as="geometry" />
        </mxCell>
        <mxCell id="DeGM6VzPt1C5OLX9xuGM-122" value="..." style="text;html=1;align=center;verticalAlign=middle;resizable=0;points=[];autosize=1;strokeColor=none;fillColor=none;" vertex="1" parent="1">
          <mxGeometry x="491.5" y="296" width="28" height="26" as="geometry" />
        </mxCell>
        <mxCell id="DeGM6VzPt1C5OLX9xuGM-123" value="..." style="text;html=1;align=center;verticalAlign=middle;resizable=0;points=[];autosize=1;strokeColor=none;fillColor=none;" vertex="1" parent="1">
          <mxGeometry x="532" y="296" width="28" height="26" as="geometry" />
        </mxCell>
        <mxCell id="DeGM6VzPt1C5OLX9xuGM-124" value="..." style="text;html=1;align=center;verticalAlign=middle;resizable=0;points=[];autosize=1;strokeColor=none;fillColor=none;" vertex="1" parent="1">
          <mxGeometry x="571.5" y="296" width="28" height="26" as="geometry" />
        </mxCell>
        <mxCell id="DeGM6VzPt1C5OLX9xuGM-125" value="..." style="text;html=1;align=center;verticalAlign=middle;resizable=0;points=[];autosize=1;strokeColor=none;fillColor=none;" vertex="1" parent="1">
          <mxGeometry x="611" y="296" width="28" height="26" as="geometry" />
        </mxCell>
        <mxCell id="DeGM6VzPt1C5OLX9xuGM-126" value="..." style="text;html=1;align=center;verticalAlign=middle;resizable=0;points=[];autosize=1;strokeColor=none;fillColor=none;" vertex="1" parent="1">
          <mxGeometry x="650" y="296" width="28" height="26" as="geometry" />
        </mxCell>
        <mxCell id="DeGM6VzPt1C5OLX9xuGM-127" value="..." style="text;html=1;align=center;verticalAlign=middle;resizable=0;points=[];autosize=1;strokeColor=none;fillColor=none;" vertex="1" parent="1">
          <mxGeometry x="691" y="297" width="28" height="26" as="geometry" />
        </mxCell>
        <mxCell id="DeGM6VzPt1C5OLX9xuGM-128" value="..." style="text;html=1;align=center;verticalAlign=middle;resizable=0;points=[];autosize=1;strokeColor=none;fillColor=none;" vertex="1" parent="1">
          <mxGeometry x="611" y="376.5" width="28" height="26" as="geometry" />
        </mxCell>
        <mxCell id="DeGM6VzPt1C5OLX9xuGM-129" value="..." style="text;html=1;align=center;verticalAlign=middle;resizable=0;points=[];autosize=1;strokeColor=none;fillColor=none;" vertex="1" parent="1">
          <mxGeometry x="650" y="376.5" width="28" height="26" as="geometry" />
        </mxCell>
        <mxCell id="DeGM6VzPt1C5OLX9xuGM-130" value="..." style="text;html=1;align=center;verticalAlign=middle;resizable=0;points=[];autosize=1;strokeColor=none;fillColor=none;" vertex="1" parent="1">
          <mxGeometry x="691" y="376.5" width="28" height="26" as="geometry" />
        </mxCell>
        <mxCell id="DeGM6VzPt1C5OLX9xuGM-131" value="..." style="text;html=1;align=center;verticalAlign=middle;resizable=0;points=[];autosize=1;strokeColor=none;fillColor=none;" vertex="1" parent="1">
          <mxGeometry x="571.5" y="376.5" width="28" height="26" as="geometry" />
        </mxCell>
        <mxCell id="DeGM6VzPt1C5OLX9xuGM-132" value="..." style="text;html=1;align=center;verticalAlign=middle;resizable=0;points=[];autosize=1;strokeColor=none;fillColor=none;" vertex="1" parent="1">
          <mxGeometry x="532" y="376.5" width="28" height="26" as="geometry" />
        </mxCell>
        <mxCell id="DeGM6VzPt1C5OLX9xuGM-133" value="..." style="text;html=1;align=center;verticalAlign=middle;resizable=0;points=[];autosize=1;strokeColor=none;fillColor=none;" vertex="1" parent="1">
          <mxGeometry x="491.5" y="376.5" width="28" height="26" as="geometry" />
        </mxCell>
        <mxCell id="DeGM6VzPt1C5OLX9xuGM-134" value="..." style="text;html=1;align=center;verticalAlign=middle;resizable=0;points=[];autosize=1;strokeColor=none;fillColor=none;" vertex="1" parent="1">
          <mxGeometry x="451" y="376.5" width="28" height="26" as="geometry" />
        </mxCell>
        <mxCell id="DeGM6VzPt1C5OLX9xuGM-135" value="..." style="text;html=1;align=center;verticalAlign=middle;resizable=0;points=[];autosize=1;strokeColor=none;fillColor=none;" vertex="1" parent="1">
          <mxGeometry x="531" y="458" width="28" height="26" as="geometry" />
        </mxCell>
        <mxCell id="DeGM6VzPt1C5OLX9xuGM-136" value="..." style="text;html=1;align=center;verticalAlign=middle;resizable=0;points=[];autosize=1;strokeColor=none;fillColor=none;" vertex="1" parent="1">
          <mxGeometry x="610" y="456" width="28" height="26" as="geometry" />
        </mxCell>
        <mxCell id="DeGM6VzPt1C5OLX9xuGM-137" value="Text" style="text;html=1;align=center;verticalAlign=middle;resizable=0;points=[];autosize=1;strokeColor=none;fillColor=none;" vertex="1" parent="1">
          <mxGeometry x="774" y="314" width="40" height="26" as="geometry" />
        </mxCell>
        <mxCell id="DeGM6VzPt1C5OLX9xuGM-138" value="X&lt;sub&gt;11&lt;/sub&gt;" style="text;html=1;align=center;verticalAlign=middle;resizable=0;points=[];autosize=1;strokeColor=none;fillColor=none;" vertex="1" parent="1">
          <mxGeometry x="487" y="260" width="36" height="30" as="geometry" />
        </mxCell>
        <mxCell id="DeGM6VzPt1C5OLX9xuGM-139" value="X&lt;sub&gt;1j&lt;/sub&gt;" style="text;html=1;align=center;verticalAlign=middle;resizable=0;points=[];autosize=1;strokeColor=none;fillColor=none;" vertex="1" parent="1">
          <mxGeometry x="568.5" y="260" width="34" height="30" as="geometry" />
        </mxCell>
        <mxCell id="DeGM6VzPt1C5OLX9xuGM-141" value="X&lt;sub&gt;1n&lt;/sub&gt;" style="text;html=1;align=center;verticalAlign=middle;resizable=0;points=[];autosize=1;strokeColor=none;fillColor=none;" vertex="1" parent="1">
          <mxGeometry x="647.5" y="263" width="37" height="30" as="geometry" />
        </mxCell>
        <mxCell id="DeGM6VzPt1C5OLX9xuGM-142" value="X&lt;sub&gt;in&lt;/sub&gt;" style="text;html=1;align=center;verticalAlign=middle;resizable=0;points=[];autosize=1;strokeColor=none;fillColor=none;" vertex="1" parent="1">
          <mxGeometry x="649" y="340" width="34" height="30" as="geometry" />
        </mxCell>
        <mxCell id="DeGM6VzPt1C5OLX9xuGM-143" value="X&lt;sub&gt;ij&lt;/sub&gt;" style="text;html=1;align=center;verticalAlign=middle;resizable=0;points=[];autosize=1;strokeColor=none;fillColor=none;" vertex="1" parent="1">
          <mxGeometry x="569" y="340" width="30" height="30" as="geometry" />
        </mxCell>
        <mxCell id="DeGM6VzPt1C5OLX9xuGM-144" value="X&lt;sub&gt;i1&lt;/sub&gt;" style="text;html=1;align=center;verticalAlign=middle;resizable=0;points=[];autosize=1;strokeColor=none;fillColor=none;" vertex="1" parent="1">
          <mxGeometry x="488.5" y="340" width="34" height="30" as="geometry" />
        </mxCell>
        <mxCell id="DeGM6VzPt1C5OLX9xuGM-145" value="X&lt;sub&gt;n1&lt;/sub&gt;" style="text;html=1;align=center;verticalAlign=middle;resizable=0;points=[];autosize=1;strokeColor=none;fillColor=none;" vertex="1" parent="1">
          <mxGeometry x="488" y="420" width="37" height="30" as="geometry" />
        </mxCell>
        <mxCell id="DeGM6VzPt1C5OLX9xuGM-146" value="X&lt;sub&gt;mj&lt;/sub&gt;" style="text;html=1;align=center;verticalAlign=middle;resizable=0;points=[];autosize=1;strokeColor=none;fillColor=none;" vertex="1" parent="1">
          <mxGeometry x="562.5" y="420" width="37" height="30" as="geometry" />
        </mxCell>
        <mxCell id="DeGM6VzPt1C5OLX9xuGM-147" value="X&lt;sub&gt;mn&lt;/sub&gt;" style="text;html=1;align=center;verticalAlign=middle;resizable=0;points=[];autosize=1;strokeColor=none;fillColor=none;" vertex="1" parent="1">
          <mxGeometry x="647" y="420" width="40" height="30" as="geometry" />
        </mxCell>
      </root>
    </mxGraphModel>
  </diagram>
</mxfile>
